<?xml version="1.0" encoding="UTF-8"?><svg id="Layer_2" xmlns="http://www.w3.org/2000/svg" viewBox="0 0 685.32 574.48"><defs><style>.cls-1{fill:#9600df;}.cls-1,.cls-2,.cls-3,.cls-4{stroke-width:0px;}.cls-2{fill:#9a9a9a;}.cls-5{fill:#23b9a4;stroke:#2ad1b5;stroke-width:8px;}.cls-5,.cls-6{stroke-miterlimit:10;}.cls-3{fill:#f90;}.cls-6{fill:#117c9d;stroke:#1596b5;stroke-width:6px;}.cls-4{fill:#fff;}</style></defs><g id="Layer_5"><g id="Layer_3"><polygon class="cls-6" points="639.1 202.03 128.2 358.63 213.1 570.93 681.9 454.63 639.1 202.03"/></g><g id="Layer_2-2"><polygon class="cls-2" points="579.8 251.83 102.6 405.53 0 191.43 511.5 12.33 579.8 251.83"/><polygon class="cls-5" points="584.5 245.63 105 391.73 5.8 176.13 520.1 5.13 584.5 245.63"/></g><path class="cls-4" d="M228.6,179.03l-29.1,9.7,40,120.5-32.3,10.7-39.9-120.2-29.7,9.9-9.7-29.2,91-30.2,9.7,28.8h0Z"/><path class="cls-4" d="M255.2,220.13c-7-21-9.8-37.1-8.5-48.4,1.3-11.3,4.8-20.9,10.5-28.9s14.3-13.8,25.8-17.6c9.5-3.2,17.7-4.1,24.5-2.9,6.9,1.2,13.8,4,20.8,8.4s13.1,10.6,18.4,18.7c5.3,8.1,10.3,19.5,15.2,34.2,10,30.1,11.9,52.5,5.7,67.2-6.2,14.8-17.3,24.8-33.1,30.1-16.2,5.4-31.1,3.8-44.7-4.9-13.6-8.6-25.1-27.2-34.6-55.9h0ZM286.2,199.73l3.2,9.6c5.2,15.7,9.2,25.9,11.9,30.5,2.7,4.6,6.2,7.8,10.5,9.6,4.3,1.7,8.9,1.8,13.6.3,3.8-1.3,6.9-3.8,9.1-7.7,2.3-3.8,3.1-8.8,2.5-15-.6-6.1-3.4-16.5-8.2-31.1-4.3-13.1-8-22.2-10.9-27.4s-6.6-9-11-11.3-9-2.7-13.7-1.2c-6.9,2.3-10.8,6.9-11.9,13.8-1,7.1.6,17,4.9,29.9h0Z"/><path class="cls-4" d="M361.9,102.63l41.9-13.9c32.5-10.8,54-.6,64.3,30.6,4.6,14,4,26.1-1.9,36.6-5.9,10.4-16.6,18.2-32.1,23.3l-9.4,3.1,19.5,58.9-32.6,10.8-49.7-149.4h0ZM416.5,159.03l6.5-2.1c5.7-1.9,9.6-5.2,11.5-9.9s1.8-10.4-.4-17.1c-4.9-14.8-13.1-20.2-24.5-16.5l-7.4,2.5,14.3,43.1h0Z"/><circle class="cls-3" cx="43.7" cy="412.13" r="6.1"/><circle class="cls-3" cx="84.6" cy="388.53" r="6"/><circle class="cls-3" cx="107.4" cy="427.93" r="9"/><circle class="cls-3" cx="76.9" cy="428.93" r="3.4"/><circle class="cls-3" cx="143.19" cy="432.42" r="5.5"/><circle class="cls-3" cx="127.8" cy="403.73" r="3.6"/><circle class="cls-3" cx="111.8" cy="470.53" r="2.7"/><circle class="cls-3" cx="104.3" cy="345.33" r="4.9"/><circle class="cls-3" cx="119.4" cy="363.73" r="3.6"/><circle class="cls-3" cx="105.1" cy="374.13" r="2.2"/><circle class="cls-1" cx="616" cy="167.73" r="9.1"/><circle class="cls-1" cx="641.27" cy="160.65" r="5"/><circle class="cls-1" cx="591.38" cy="202.35" r="3.7" transform="translate(-32.22 159.95) rotate(-15)"/><circle class="cls-1" cx="664.9" cy="187.63" r="9.1"/><circle class="cls-1" cx="620.6" cy="203.83" r="5.5"/><circle class="cls-1" cx="590.48" cy="146.35" r="2.5"/><path class="cls-4" d="M229.63,387.5l74.67-18.62,7.85,31.5-21.59,5.38,26.52,106.38-31.71,7.91-26.52-106.38-21.38,5.33-7.85-31.5Z"/><path class="cls-4" d="M324.86,363.75l31.29-7.8,34.38,137.88-31.29,7.8-34.38-137.88Z"/><path class="cls-4" d="M386.73,348.33l38.73-9.66c13.63-3.4,25.55-2.24,35.75,3.48,10.2,5.72,16.89,14.95,20.07,27.69,3.35,13.43,1.79,24.99-4.68,34.68-6.47,9.7-17.11,16.39-31.91,20.08l-5.37,1.34,13.08,52.47-31.29,7.8-34.38-137.88ZM424.61,366.97l8.11,32.53c6.99-1.89,11.83-4.52,14.54-7.9,2.7-3.38,3.37-7.82,2-13.33-1.48-5.92-4.14-9.7-7.98-11.34-3.85-1.64-9.4-1.62-16.67.04Z"/><path class="cls-4" d="M528.08,456.8l-8.01-32.12c11.36,3.31,20.41,4.13,27.16,2.44,3.92-.98,6.75-2.83,8.48-5.57,1.73-2.74,2.15-5.89,1.26-9.47-.69-2.75-2.24-5.11-4.67-7.06-2.43-1.96-6.31-4.1-11.64-6.42-12.87-5.57-22.62-11.31-29.25-17.22-6.63-5.92-11.04-13.25-13.22-21.99-2.97-11.91-1.64-22.56,4-31.93,5.63-9.38,14.41-15.55,26.32-18.52,8.81-2.2,18.03-2.48,27.65-.86l7.7,30.88c-10.57-2.78-18.74-3.45-24.53-2-3.86.96-6.67,2.67-8.43,5.12-1.77,2.45-2.24,5.33-1.41,8.63,1.44,5.78,8.26,10.99,20.46,15.63,7.26,2.72,15.04,7.16,23.34,13.32,8.3,6.16,13.72,14.33,16.26,24.52,2.97,11.91,1.26,22.82-5.12,32.71-6.38,9.89-15.98,16.44-28.79,19.63-8.74,2.18-17.94,2.28-27.57.29Z"/></g></svg>